<svg width="35" height="36" viewBox="0 0 35 36" fill="none" xmlns="http://www.w3.org/2000/svg">
<path d="M17.5 3.41667C9.45002 3.41667 2.91669 9.95 2.91669 18C2.91669 26.05 9.45002 32.5833 17.5 32.5833C25.55 32.5833 32.0834 26.05 32.0834 18C32.0834 9.95 25.55 3.41667 17.5 3.41667ZM17.5875 28.2083V25.2771H17.5C15.6334 25.2771 13.7667 24.5625 12.3375 23.1479C11.1505 21.9596 10.4095 20.3984 10.2395 18.7275C10.0695 17.0565 10.4808 15.378 11.4042 13.975L13.0084 15.5792C11.9729 17.5188 12.2354 19.9688 13.8688 21.6021C14.8896 22.6229 16.2313 23.1042 17.5729 23.075V19.9542L21.7 24.0813L17.5875 28.2083ZM23.5813 22.025L21.9771 20.4208C23.0125 18.4813 22.75 16.0313 21.1167 14.3979C20.6434 13.9205 20.0799 13.5418 19.4591 13.284C18.8382 13.0261 18.1723 12.8942 17.5 12.8958H17.4125V16.0313L13.2854 11.9188L17.4125 7.79167V10.7375C19.3084 10.7083 21.2188 11.3938 22.6625 12.8521C25.1417 15.3313 25.4479 19.1958 23.5813 22.025Z" fill="white"/>
</svg>
