<svg width="50" height="50" viewBox="5 5 33 39" fill="none" xmlns="http://www.w3.org/2000/svg">
<path d="M7.5 36.125V19.25C7.5 18.6562 7.63312 18.0938 7.89937 17.5625C8.16562 17.0313 8.5325 16.5937 9 16.25L20.25 7.8125C20.9062 7.3125 21.6562 7.0625 22.5 7.0625C23.3437 7.0625 24.0937 7.3125 24.75 7.8125L36 16.25C36.4688 16.5937 36.8362 17.0313 37.1025 17.5625C37.3687 18.0938 37.5012 18.6562 37.5 19.25V36.125C37.5 37.1562 37.1325 38.0394 36.3975 38.7744C35.6625 39.5094 34.78 39.8763 33.75 39.875H28.125C27.5937 39.875 27.1487 39.695 26.79 39.335C26.4312 38.975 26.2512 38.53 26.25 38V28.625C26.25 28.0938 26.07 27.6488 25.71 27.29C25.35 26.9312 24.905 26.7512 24.375 26.75H20.625C20.0937 26.75 19.6487 26.93 19.29 27.29C18.9312 27.65 18.7512 28.095 18.75 28.625V38C18.75 38.5312 18.57 38.9769 18.21 39.3369C17.85 39.6969 17.405 39.8763 16.875 39.875H11.25C10.2187 39.875 9.33625 39.5081 8.6025 38.7744C7.86875 38.0406 7.50125 37.1575 7.5 36.125Z" fill="black"/>
</svg>
