<svg width="36" height="39" viewBox="0 0 36 39" fill="none" xmlns="http://www.w3.org/2000/svg">
<path d="M18 0.5C27.6652 0.5 35.5 8.33475 35.5 18C35.5 27.6652 27.6652 35.5 18 35.5C8.33475 35.5 0.5 27.6652 0.5 18C0.5 8.33475 8.33475 0.5 18 0.5ZM18 25C17.5359 25 17.0908 25.1844 16.7626 25.5126C16.4344 25.8407 16.25 26.2859 16.25 26.75C16.25 27.2141 16.4344 27.6593 16.7626 27.9874C17.0908 28.3156 17.5359 28.5 18 28.5C18.4641 28.5 18.9092 28.3156 19.2374 27.9874C19.5656 27.6593 19.75 27.2141 19.75 26.75C19.75 26.2859 19.5656 25.8407 19.2374 25.5126C18.9092 25.1844 18.4641 25 18 25ZM18 8.375C16.3175 8.375 14.704 9.04336 13.5143 10.233C12.3246 11.4227 11.6562 13.0363 11.6562 14.7188C11.6562 15.1829 11.8406 15.628 12.1688 15.9562C12.497 16.2844 12.9421 16.4688 13.4062 16.4688C13.8704 16.4688 14.3155 16.2844 14.6437 15.9562C14.9719 15.628 15.1562 15.1829 15.1562 14.7188C15.1568 14.2026 15.2979 13.6963 15.5643 13.2542C15.8307 12.812 16.2125 12.4508 16.6686 12.2091C17.1247 11.9674 17.638 11.8545 18.1535 11.8823C18.6689 11.9102 19.167 12.0778 19.5944 12.3672C20.0219 12.6566 20.3624 13.0569 20.5797 13.5252C20.7969 13.9934 20.8826 14.512 20.8275 15.0252C20.7725 15.5385 20.5788 16.0271 20.2672 16.4386C19.9556 16.8501 19.5378 17.1691 19.0588 17.3612C17.8757 17.8337 16.25 19.0448 16.25 21.0625V21.5C16.25 21.9641 16.4344 22.4092 16.7626 22.7374C17.0908 23.0656 17.5359 23.25 18 23.25C18.4641 23.25 18.9092 23.0656 19.2374 22.7374C19.5656 22.4092 19.75 21.9641 19.75 21.5C19.75 21.073 19.8375 20.8595 20.2067 20.6775L20.359 20.6075C21.7254 20.0578 22.8581 19.0499 23.5628 17.7566C24.2675 16.4633 24.5004 14.9651 24.2215 13.5189C23.9426 12.0727 23.1693 10.7686 22.0342 9.83007C20.8991 8.89156 19.4728 8.37714 18 8.375Z" fill="black"/>
</svg>
