<svg width="32" height="32" viewBox="0 0 32 32" fill="none" xmlns="http://www.w3.org/2000/svg">
<path d="M11.9969 23.3719C8.81772 23.3719 6.12739 22.2705 3.92589 20.0679C1.72439 17.8652 0.623055 15.1749 0.621888 11.9969C0.620721 8.81887 1.72205 6.12854 3.92589 3.92587C6.12972 1.72321 8.82006 0.621872 11.9969 0.621872C15.1737 0.621872 17.8646 1.72321 20.0696 3.92587C22.2746 6.12854 23.3754 8.81887 23.3719 11.9969C23.3719 13.2802 23.1677 14.4906 22.7594 15.6281C22.3511 16.7656 21.7969 17.7719 21.0969 18.6469L30.8969 28.4469C31.2177 28.7677 31.3781 29.176 31.3781 29.6719C31.3781 30.1677 31.2177 30.576 30.8969 30.8969C30.5761 31.2177 30.1677 31.3781 29.6719 31.3781C29.1761 31.3781 28.7677 31.2177 28.4469 30.8969L18.6469 21.0969C17.7719 21.7969 16.7656 22.351 15.6281 22.7594C14.4906 23.1677 13.2802 23.3719 11.9969 23.3719ZM11.9969 19.8719C14.1844 19.8719 16.0441 19.1065 17.5759 17.5759C19.1077 16.0452 19.8731 14.1855 19.8719 11.9969C19.8707 9.80821 19.1054 7.94912 17.5759 6.41962C16.0464 4.89012 14.1867 4.12421 11.9969 4.12187C9.80705 4.11954 7.94797 4.88546 6.41964 6.41962C4.8913 7.95379 4.12539 9.81287 4.12189 11.9969C4.11839 14.1809 4.88431 16.0405 6.41964 17.5759C7.95497 19.1112 9.81405 19.8765 11.9969 19.8719Z" fill="white"/>
</svg>
