<svg width="36" height="35" viewBox="0 0 38 38" fill="none" xmlns="http://www.w3.org/2000/svg">
<mask id="mask0_1_35" style="mask-type:luminance" maskUnits="userSpaceOnUse" x="0" y="0" width="36" height="35">
<path d="M13.2367 33.9758C10.4802 33.1526 7.98365 31.6299 5.99005 29.5558C6.63144 28.7951 7.03127 27.8603 7.13837 26.871C7.24547 25.8818 7.05497 24.8831 6.59125 24.0027C6.12753 23.1223 5.41167 22.4003 4.53529 21.9291C3.6589 21.4579 2.66185 21.2589 1.67172 21.3575C1.44564 20.2527 1.33228 19.1277 1.33338 18C1.33338 16.2583 1.60005 14.5783 2.09672 13H2.16672C3.01651 13.0003 3.85236 12.7839 4.59533 12.3715C5.3383 11.959 5.96387 11.3639 6.41299 10.6425C6.86211 9.92107 7.11994 9.09708 7.16215 8.24834C7.20436 7.39959 7.02954 6.55409 6.65422 5.79167C8.60866 3.9732 10.9713 2.65083 13.5434 1.93583C13.962 2.75783 14.5999 3.448 15.3865 3.92996C16.173 4.41192 17.0776 4.66689 18 4.66667C18.9225 4.66689 19.8271 4.41192 20.6136 3.92996C21.4002 3.448 22.0381 2.75783 22.4567 1.93583C25.0288 2.65083 27.3914 3.9732 29.3459 5.79167C28.9678 6.55943 28.7931 7.41137 28.8386 8.26596C28.884 9.12055 29.148 9.94918 29.6054 10.6725C30.0627 11.3959 30.6981 11.9897 31.4506 12.3972C32.2031 12.8048 33.0477 13.0123 33.9034 13C34.4107 14.6181 34.6681 16.3042 34.6667 18C34.6667 19.15 34.5501 20.2733 34.3284 21.3583C33.3382 21.2597 32.3412 21.4587 31.4648 21.9299C30.5884 22.4012 29.8726 23.1231 29.4089 24.0035C28.9451 24.8839 28.7546 25.8826 28.8617 26.8719C28.9688 27.8611 29.3687 28.7959 30.01 29.5567C28.0163 31.6304 25.5198 33.1529 22.7634 33.9758C22.4397 32.9669 21.804 32.0868 20.9479 31.4624C20.0918 30.8381 19.0596 30.5016 18 30.5016C16.9405 30.5016 15.9083 30.8381 15.0522 31.4624C14.1961 32.0868 13.5604 32.9669 13.2367 33.9758Z" fill="white" stroke="white" stroke-width="2" stroke-linejoin="round"/>
<path d="M18.0001 23.8333C18.7661 23.8333 19.5247 23.6824 20.2324 23.3893C20.9401 23.0961 21.5832 22.6665 22.1249 22.1248C22.6665 21.5831 23.0962 20.9401 23.3894 20.2323C23.6825 19.5246 23.8334 18.766 23.8334 18C23.8334 17.234 23.6825 16.4754 23.3894 15.7677C23.0962 15.0599 22.6665 14.4169 22.1249 13.8752C21.5832 13.3335 20.9401 12.9039 20.2324 12.6107C19.5247 12.3175 18.7661 12.1667 18.0001 12.1667C16.453 12.1667 14.9693 12.7812 13.8753 13.8752C12.7813 14.9692 12.1667 16.4529 12.1667 18C12.1667 19.5471 12.7813 21.0308 13.8753 22.1248C14.9693 23.2187 16.453 23.8333 18.0001 23.8333Z" fill="black" stroke="black" stroke-width="2" stroke-linejoin="round"/>
</mask>
<g mask="url(#mask0_1_35)">
<path d="M-2 -2H38V38H-2V-2Z" fill="black"/>
</g>
</svg>
